<?xml version="1.0" encoding="iso-8859-1"?>
<!-- Uploaded to: SVG Repo, www.svgrepo.com, Generator: SVG Repo Mixer Tools -->
<svg height="800px" width="800px" version="1.1" id="Layer_1" xmlns="http://www.w3.org/2000/svg" xmlns:xlink="http://www.w3.org/1999/xlink" 
	 viewBox="0 0 512 512" xml:space="preserve">
<path style="fill:#E28883;" d="M386.862,456.421c-3.185,0-6.369-1.208-8.798-3.625L277.321,352.554
	c-2.332-2.322-3.644-5.469-3.644-8.753c0-3.283,1.311-6.431,3.644-8.753l100.744-100.241c2.429-2.417,5.613-3.626,8.798-3.626
	c3.183,0,6.367,1.208,8.796,3.626l100.744,100.241c2.332,2.322,3.644,5.47,3.644,8.753c0,3.284-1.311,6.431-3.644,8.753
	L395.658,452.796C393.229,455.213,390.044,456.421,386.862,456.421z"/>
<path style="fill:#E8A09C;" d="M277.321,352.554l100.744,100.242c2.239,2.228,5.12,3.416,8.05,3.589l0.001-111.84H273.714
	C273.896,347.557,275.165,350.409,277.321,352.554z"/>
<path style="opacity:0.1;enable-background:new    ;" d="M311.053,352.554c-2.332-2.322-3.644-5.469-3.644-8.753
	c0-3.283,1.311-6.431,3.644-8.753l92.674-92.211l-8.07-8.029c-2.429-2.417-5.613-3.626-8.796-3.626
	c-3.185,0-6.369,1.208-8.798,3.626L277.32,335.049c-2.332,2.322-3.644,5.47-3.644,8.753c0,3.284,1.311,6.431,3.644,8.753
	l100.744,100.242c2.429,2.417,5.613,3.625,8.798,3.625c3.183,0,6.367-1.208,8.796-3.625l8.07-8.029L311.053,352.554z"/>
<path style="fill:#E8A09C;" d="M496.402,335.048L395.658,234.806c-2.322-2.31-5.333-3.503-8.374-3.606v112.178h112.74
	C499.917,340.251,498.634,337.27,496.402,335.048z"/>
<path style="fill:#FEFAC8;" d="M115.962,512c-3.296,0-6.587-1.192-9.165-3.576l-90.113-83.323c-2.702-2.496-4.233-5.985-4.233-9.637
	V233.348c0-3.686,1.562-7.207,4.311-9.709l90.112-82.004c2.567-2.336,5.826-3.504,9.089-3.504c3.261,0,6.519,1.167,9.084,3.504
	l90.113,82.004c2.746,2.503,4.313,6.022,4.313,9.709v182.116c0,3.652-1.534,7.14-4.236,9.637l-90.113,83.323
	C122.548,510.808,119.255,512,115.962,512z"/>
<g>
	<path style="fill:#EFBA50;" d="M115.962,443.415v67.542c3.292,0,6.587-1.192,9.162-3.576l90.113-83.323
		c2.702-2.496,4.236-5.985,4.236-9.637l-53.592-17.167L115.962,443.415z"/>
	<path style="fill:#EFBA50;" d="M12.45,232.305c0-3.686,1.562-7.206,4.311-9.708l90.112-82.004c2.567-2.336,5.826-3.504,9.089-3.504
		v67.141L66.04,249.66L12.45,232.305z"/>
</g>
<path style="fill:#F9D984;" d="M115.962,443.415v67.542c-3.294,0-6.587-1.192-9.165-3.576l-90.113-83.323
	c-2.702-2.496-4.233-5.985-4.233-9.637l53.589-17.167L115.962,443.415z"/>
<g>
	<polygon style="fill:#E5AE36;" points="66.039,397.067 66.039,249.473 12.45,232.305 12.45,414.421 	"/>
	<polygon style="fill:#E5AE36;" points="165.881,249.661 165.881,397.256 219.473,414.421 219.473,232.305 	"/>
</g>
<path style="fill:#37C4B3;" d="M298.251,229.046c-3.758,0-7.325-1.695-9.719-4.623L173.406,83.732
	c-3.529-4.312-3.855-10.443-0.805-15.111l41.087-62.902C216.019,2.149,219.976,0,224.211,0h148.081c4.236,0,8.19,2.149,10.526,5.719
	l41.083,62.902c3.051,4.669,2.724,10.799-0.805,15.111l-115.126,140.69C305.576,227.351,302.01,229.046,298.251,229.046z"/>
<g>
	<path style="fill:#53E7D3;" d="M218.484,1.406c-1.911,0.983-3.578,2.447-4.795,4.312L172.6,68.622
		c-1.555,2.381-2.229,5.145-2.049,7.856h96.97L218.484,1.406z"/>
	<path style="fill:#53E7D3;" d="M328.979,76.476h96.973c0.179-2.71-0.492-5.473-2.05-7.856L382.814,5.718
		c-1.217-1.865-2.882-3.328-4.795-4.312L328.979,76.476z"/>
</g>
<path style="fill:#F5BFB6;" d="M386.862,388.544c-1.592,0-3.185-0.604-4.4-1.813l-38.747-38.554
	c-1.166-1.161-1.822-2.736-1.822-4.377c0-1.642,0.656-3.215,1.822-4.376l38.747-38.554c1.215-1.208,2.808-1.812,4.4-1.812
	c1.59,0,3.183,0.604,4.398,1.812l38.748,38.554c1.166,1.161,1.821,2.736,1.821,4.376c0,1.642-0.655,3.215-1.821,4.377
	l-38.748,38.554C390.044,387.94,388.453,388.544,386.862,388.544z"/>
<polygon style="fill:#53E7D3;" points="298.251,229.072 348.278,76.476 248.534,76.476 "/>
<polygon style="fill:#B9F5ED;" points="298.178,0 248.224,76.476 348.278,76.476 298.323,0 "/>
<path style="opacity:0.1;enable-background:new    ;" d="M206.977,83.732c-3.529-4.312-3.856-10.443-0.807-15.111l41.089-62.902
	C249.59,2.149,253.548,0,257.782,0h-33.572c-4.235,0-8.192,2.149-10.523,5.719L172.6,68.621c-3.05,4.669-2.724,10.799,0.805,15.111
	l115.127,140.691C290.926,227.351,206.977,83.732,206.977,83.732z"/>
<path style="opacity:0.1;enable-background:new    ;" d="M45.571,415.268V232.779c0-3.694,1.565-7.221,4.319-9.728l65.787-59.866
	V137.37c-3.268,0-6.535,1.169-9.106,3.51l-90.296,82.172c-2.754,2.507-4.32,6.034-4.32,9.728v182.488
	c0,3.659,1.534,7.154,4.241,9.656l90.297,83.494c2.583,2.388,5.882,3.583,9.185,3.583v-26.174l-65.864-60.903
	C47.103,422.422,45.571,418.927,45.571,415.268z"/>
<path style="fill:#F9D984;" d="M219.398,232.779c0-3.694-1.57-7.221-4.322-9.728l-90.297-82.172c-2.57-2.342-5.836-3.51-9.103-3.51
	v67.278l50.021,45.522L219.398,232.779z"/>
</svg>